<?xml version="1.0" standalone="no"?><!DOCTYPE svg PUBLIC "-//W3C//DTD SVG 1.1//EN" "http://www.w3.org/Graphics/SVG/1.1/DTD/svg11.dtd"><svg t="1573804678974" class="icon" viewBox="0 0 1024 1024" version="1.1" xmlns="http://www.w3.org/2000/svg" p-id="14195" xmlns:xlink="http://www.w3.org/1999/xlink" width="200" height="200"><defs><style type="text/css"></style></defs><path d="M400.504471 452.005647l222.509176 0 0 59.331765-222.509176 0 0-59.331765Z" p-id="14196" fill="#1296db"></path><path d="M400.504471 324.126118l222.509176 0 0 59.331765-222.509176 0 0-59.331765Z" p-id="14197" fill="#1296db"></path><path d="M475.136 651.685647c11.625412 9.035294 24.576 12.950588 36.562824 12.649412 11.986824 0.361412 24.937412-3.614118 36.562824-12.649412l200.764235-156.009412 215.521882-167.514353-402.793412-284.912941C533.865412 15.299765 488.628706 15.239529 460.739765 43.068235L57.886118 327.499294l216.485647 168.176941L475.136 651.685647zM294.008471 243.591529c0-15.058824 12.167529-27.226353 27.226353-27.226353l380.988235 0c15.058824 0 27.226353 12.167529 27.226353 27.226353l0 216.967529-184.199529 143.058824c-10.661647 8.372706-22.528 11.926588-33.490824 11.565176-11.023059 0.361412-22.829176-3.252706-33.490824-11.565176L294.008471 460.559059 294.008471 243.591529z" p-id="14198" fill="#1296db"></path><path d="M986.292706 385.566118l-237.206588 193.596235L583.68 714.029176c-2.891294 2.228706-6.144 3.011765-9.155765 4.999529-20.419765 13.312-43.128471 21.082353-62.825412 21.082353-19.757176 0-42.465882-7.770353-62.825412-21.082353-3.011765-1.987765-6.264471-2.770824-9.095529-4.999529L274.432 579.162353 38.610824 386.710588C38.309647 390.445176 36.924235 393.999059 37.104941 397.673412l0 528.986353c0 32.768 26.563765 59.331765 59.331765 59.331765L927.021176 985.991529c32.768 0 59.331765-26.563765 59.331765-59.331765L986.352941 404.540235C987.196235 398.215529 987.015529 391.890824 986.292706 385.566118z" p-id="14199" fill="#1296db"></path></svg>