<?xml version="1.0" standalone="no"?><!DOCTYPE svg PUBLIC "-//W3C//DTD SVG 1.1//EN" "http://www.w3.org/Graphics/SVG/1.1/DTD/svg11.dtd"><svg t="1573804377586" class="icon" viewBox="0 0 1024 1024" version="1.1" xmlns="http://www.w3.org/2000/svg" p-id="13355" xmlns:xlink="http://www.w3.org/1999/xlink" width="200" height="200"><defs><style type="text/css"></style></defs><path d="M845.4 160H178.6c-63.2 0.1-114.5 51.3-114.6 114.6v474.9c0.1 63.2 51.4 114.5 114.6 114.6h666.8c63.2-0.1 114.5-51.3 114.6-114.6V274.6c-0.1-63.3-51.4-114.5-114.6-114.6zM661.5 531.5l236-253.2v462.5l-236-209.3z m183.9-309c5.5 0.1 10.9 1 16 2.8L523.7 587.7c-6 6.4-16 6.8-22.4 0.9l-0.9-0.9-337.8-362.4c5.2-1.8 10.6-2.7 16-2.8h666.8zM126.5 740.8V278.3l236 253.3-236 209.2z m52.1 60.7c-7 0-13.9-1.4-20.4-4.2l246.9-220.1 49.4 53c29.2 31.7 78.6 33.7 110.3 4.5 1.6-1.4 3.1-2.9 4.5-4.5l49.4-53 246.9 220.1c-6.4 2.7-13.4 4.2-20.4 4.2H178.6z" fill="#3FADF6" p-id="13356"></path></svg>